<?xml version="1.0" encoding="UTF-8" standalone="no"?>
<!DOCTYPE svg PUBLIC "-//W3C//DTD SVG 1.1//EN"
 "http://www.w3.org/Graphics/SVG/1.1/DTD/svg11.dtd">
<!-- Generated by graphviz version 2.47.0 (20210316.0004)
 -->
<!-- Title: dependencies Pages: 1 -->
<svg width="504pt" height="211pt"
 viewBox="0.00 0.00 504.00 211.00" xmlns="http://www.w3.org/2000/svg" xmlns:xlink="http://www.w3.org/1999/xlink">
<g id="graph0" class="graph" transform="scale(1 1) rotate(0) translate(4 207)">
<title>dependencies</title>
<polygon fill="white" stroke="transparent" points="-4,4 -4,-207 500,-207 500,4 -4,4"/>
<text text-anchor="start" x="227.01" y="-42.4" font-family="Times-12" font-weight="bold" font-size="14.00">Legend</text>
<polygon fill="#ffffb3" stroke="transparent" points="14,-10 14,-30 34,-30 34,-10 14,-10"/>
<text text-anchor="start" x="37.63" y="-15.4" font-family="Times-12" font-size="14.00"> &#160;Declarations</text>
<polygon fill="#8dd3c7" stroke="transparent" points="127,-10 127,-30 147,-30 147,-10 127,-10"/>
<text text-anchor="start" x="150.73" y="-15.4" font-family="Times-12" font-size="14.00"> &#160;Module</text>
<polygon fill="#80b1d3" stroke="transparent" points="213,-10 213,-30 233,-30 233,-10 213,-10"/>
<text text-anchor="start" x="236.78" y="-15.4" font-family="Times-12" font-size="14.00"> &#160;Bootstrap</text>
<polygon fill="#fdb462" stroke="transparent" points="310,-10 310,-30 330,-30 330,-10 310,-10"/>
<text text-anchor="start" x="333.67" y="-15.4" font-family="Times-12" font-size="14.00"> &#160;Providers</text>
<polygon fill="#fb8072" stroke="transparent" points="406,-10 406,-30 426,-30 426,-10 406,-10"/>
<text text-anchor="start" x="429.73" y="-15.4" font-family="Times-12" font-size="14.00"> &#160;Exports</text>
<g id="clust1" class="cluster">
<title>cluster_ReservationsModule</title>
<polygon fill="none" stroke="black" stroke-dasharray="1,5" points="75,-70 75,-195 421,-195 421,-70 75,-70"/>
</g>
<g id="clust3" class="cluster">
<title>cluster_ReservationsModule_imports</title>
<polygon fill="none" stroke="black" points="287,-78 287,-130 413,-130 413,-78 287,-78"/>
</g>
<g id="clust6" class="cluster">
<title>cluster_ReservationsModule_providers</title>
<polygon fill="none" stroke="black" points="83,-78 83,-130 279,-130 279,-78 83,-78"/>
</g>
<!-- DatabaseModule -->
<g id="node1" class="node">
<title>DatabaseModule</title>
<polygon fill="#8dd3c7" stroke="black" points="405.35,-122 402.35,-126 381.35,-126 378.35,-122 294.65,-122 294.65,-86 405.35,-86 405.35,-122"/>
<text text-anchor="middle" x="350" y="-99.8" font-family="Times,serif" font-size="14.00">DatabaseModule</text>
</g>
<!-- ReservationsModule -->
<g id="node2" class="node">
<title>ReservationsModule</title>
<polygon fill="#8dd3c7" stroke="black" points="329.86,-187 326.86,-191 305.86,-191 302.86,-187 198.14,-187 198.14,-151 329.86,-151 329.86,-187"/>
<text text-anchor="middle" x="264" y="-164.8" font-family="Times,serif" font-size="14.00">ReservationsModule</text>
</g>
<!-- DatabaseModule&#45;&gt;ReservationsModule -->
<g id="edge1" class="edge">
<title>DatabaseModule&#45;&gt;ReservationsModule</title>
<path fill="none" stroke="black" d="M312.25,-122.11C312.25,-122.11 312.25,-140.99 312.25,-140.99"/>
<polygon fill="black" stroke="black" points="308.75,-140.99 312.25,-150.99 315.75,-140.99 308.75,-140.99"/>
</g>
<!-- ReservationsService -->
<g id="node3" class="node">
<title>ReservationsService</title>
<ellipse fill="#fdb462" stroke="black" cx="181" cy="-104" rx="89.74" ry="18"/>
<text text-anchor="middle" x="181" y="-99.8" font-family="Times,serif" font-size="14.00">ReservationsService</text>
</g>
<!-- ReservationsService&#45;&gt;ReservationsModule -->
<g id="edge2" class="edge">
<title>ReservationsService&#45;&gt;ReservationsModule</title>
<path fill="none" stroke="black" d="M234.47,-118.75C234.47,-118.75 234.47,-140.59 234.47,-140.59"/>
<polygon fill="black" stroke="black" points="230.97,-140.59 234.47,-150.59 237.97,-140.59 230.97,-140.59"/>
</g>
</g>
</svg>
