<?xml version="1.0" encoding="UTF-8" standalone="no"?>
<!DOCTYPE svg PUBLIC "-//W3C//DTD SVG 1.1//EN"
 "http://www.w3.org/Graphics/SVG/1.1/DTD/svg11.dtd">
<!-- Generated by graphviz version 2.47.0 (20210316.0004)
 -->
<!-- Title: dependencies Pages: 1 -->
<svg width="504pt" height="211pt"
 viewBox="0.00 0.00 504.00 211.00" xmlns="http://www.w3.org/2000/svg" xmlns:xlink="http://www.w3.org/1999/xlink">
<g id="graph0" class="graph" transform="scale(1 1) rotate(0) translate(4 207)">
<title>dependencies</title>
<polygon fill="white" stroke="transparent" points="-4,4 -4,-207 500,-207 500,4 -4,4"/>
<text text-anchor="start" x="227.01" y="-42.4" font-family="Times-12" font-weight="bold" font-size="14.00">Legend</text>
<polygon fill="#ffffb3" stroke="transparent" points="14,-10 14,-30 34,-30 34,-10 14,-10"/>
<text text-anchor="start" x="37.63" y="-15.4" font-family="Times-12" font-size="14.00"> &#160;Declarations</text>
<polygon fill="#8dd3c7" stroke="transparent" points="127,-10 127,-30 147,-30 147,-10 127,-10"/>
<text text-anchor="start" x="150.73" y="-15.4" font-family="Times-12" font-size="14.00"> &#160;Module</text>
<polygon fill="#80b1d3" stroke="transparent" points="213,-10 213,-30 233,-30 233,-10 213,-10"/>
<text text-anchor="start" x="236.78" y="-15.4" font-family="Times-12" font-size="14.00"> &#160;Bootstrap</text>
<polygon fill="#fdb462" stroke="transparent" points="310,-10 310,-30 330,-30 330,-10 310,-10"/>
<text text-anchor="start" x="333.67" y="-15.4" font-family="Times-12" font-size="14.00"> &#160;Providers</text>
<polygon fill="#fb8072" stroke="transparent" points="406,-10 406,-30 426,-30 426,-10 406,-10"/>
<text text-anchor="start" x="429.73" y="-15.4" font-family="Times-12" font-size="14.00"> &#160;Exports</text>
<g id="clust1" class="cluster">
<title>cluster_ApartmentsModule</title>
<polygon fill="none" stroke="black" stroke-dasharray="1,5" points="80,-70 80,-195 416,-195 416,-70 80,-70"/>
</g>
<g id="clust3" class="cluster">
<title>cluster_ApartmentsModule_imports</title>
<polygon fill="none" stroke="black" points="282,-78 282,-130 408,-130 408,-78 282,-78"/>
</g>
<g id="clust6" class="cluster">
<title>cluster_ApartmentsModule_providers</title>
<polygon fill="none" stroke="black" points="88,-78 88,-130 274,-130 274,-78 88,-78"/>
</g>
<!-- DatabaseModule -->
<g id="node1" class="node">
<title>DatabaseModule</title>
<polygon fill="#8dd3c7" stroke="black" points="400.35,-122 397.35,-126 376.35,-126 373.35,-122 289.65,-122 289.65,-86 400.35,-86 400.35,-122"/>
<text text-anchor="middle" x="345" y="-99.8" font-family="Times,serif" font-size="14.00">DatabaseModule</text>
</g>
<!-- ApartmentsModule -->
<g id="node2" class="node">
<title>ApartmentsModule</title>
<polygon fill="#8dd3c7" stroke="black" points="325.36,-187 322.36,-191 301.36,-191 298.36,-187 200.64,-187 200.64,-151 325.36,-151 325.36,-187"/>
<text text-anchor="middle" x="263" y="-164.8" font-family="Times,serif" font-size="14.00">ApartmentsModule</text>
</g>
<!-- DatabaseModule&#45;&gt;ApartmentsModule -->
<g id="edge1" class="edge">
<title>DatabaseModule&#45;&gt;ApartmentsModule</title>
<path fill="none" stroke="black" d="M307.5,-122.11C307.5,-122.11 307.5,-140.99 307.5,-140.99"/>
<polygon fill="black" stroke="black" points="304,-140.99 307.5,-150.99 311,-140.99 304,-140.99"/>
</g>
<!-- ApartmentsService -->
<g id="node3" class="node">
<title>ApartmentsService</title>
<ellipse fill="#fdb462" stroke="black" cx="181" cy="-104" rx="85.09" ry="18"/>
<text text-anchor="middle" x="181" y="-99.8" font-family="Times,serif" font-size="14.00">ApartmentsService</text>
</g>
<!-- ApartmentsService&#45;&gt;ApartmentsModule -->
<g id="edge2" class="edge">
<title>ApartmentsService&#45;&gt;ApartmentsModule</title>
<path fill="none" stroke="black" d="M233.31,-118.43C233.31,-118.43 233.31,-140.89 233.31,-140.89"/>
<polygon fill="black" stroke="black" points="229.81,-140.89 233.31,-150.89 236.81,-140.89 229.81,-140.89"/>
</g>
</g>
</svg>
