<?xml version="1.0" encoding="UTF-8" standalone="no"?>
<!DOCTYPE svg PUBLIC "-//W3C//DTD SVG 1.1//EN"
 "http://www.w3.org/Graphics/SVG/1.1/DTD/svg11.dtd">
<!-- Generated by graphviz version 2.47.0 (20210316.0004)
 -->
<!-- Title: dependencies Pages: 1 -->
<svg width="569pt" height="211pt"
 viewBox="0.00 0.00 569.00 211.00" xmlns="http://www.w3.org/2000/svg" xmlns:xlink="http://www.w3.org/1999/xlink">
<g id="graph0" class="graph" transform="scale(1 1) rotate(0) translate(4 207)">
<title>dependencies</title>
<polygon fill="white" stroke="transparent" points="-4,4 -4,-207 565,-207 565,4 -4,4"/>
<text text-anchor="start" x="259.51" y="-42.4" font-family="Times-12" font-weight="bold" font-size="14.00">Legend</text>
<polygon fill="#ffffb3" stroke="transparent" points="46.5,-10 46.5,-30 66.5,-30 66.5,-10 46.5,-10"/>
<text text-anchor="start" x="70.13" y="-15.4" font-family="Times-12" font-size="14.00"> &#160;Declarations</text>
<polygon fill="#8dd3c7" stroke="transparent" points="159.5,-10 159.5,-30 179.5,-30 179.5,-10 159.5,-10"/>
<text text-anchor="start" x="183.23" y="-15.4" font-family="Times-12" font-size="14.00"> &#160;Module</text>
<polygon fill="#80b1d3" stroke="transparent" points="245.5,-10 245.5,-30 265.5,-30 265.5,-10 245.5,-10"/>
<text text-anchor="start" x="269.28" y="-15.4" font-family="Times-12" font-size="14.00"> &#160;Bootstrap</text>
<polygon fill="#fdb462" stroke="transparent" points="342.5,-10 342.5,-30 362.5,-30 362.5,-10 342.5,-10"/>
<text text-anchor="start" x="366.17" y="-15.4" font-family="Times-12" font-size="14.00"> &#160;Providers</text>
<polygon fill="#fb8072" stroke="transparent" points="438.5,-10 438.5,-30 458.5,-30 458.5,-10 438.5,-10"/>
<text text-anchor="start" x="462.23" y="-15.4" font-family="Times-12" font-size="14.00"> &#160;Exports</text>
<g id="clust1" class="cluster">
<title>cluster_AppModule</title>
<polygon fill="none" stroke="black" stroke-dasharray="1,5" points="8,-70 8,-195 553,-195 553,-70 8,-70"/>
</g>
<g id="clust3" class="cluster">
<title>cluster_AppModule_imports</title>
<polygon fill="none" stroke="black" points="16,-78 16,-130 545,-130 545,-78 16,-78"/>
</g>
<!-- ApartmentsModule -->
<g id="node1" class="node">
<title>ApartmentsModule</title>
<polygon fill="#8dd3c7" stroke="black" points="537.36,-122 534.36,-126 513.36,-126 510.36,-122 412.64,-122 412.64,-86 537.36,-86 537.36,-122"/>
<text text-anchor="middle" x="475" y="-99.8" font-family="Times,serif" font-size="14.00">ApartmentsModule</text>
</g>
<!-- AppModule -->
<g id="node5" class="node">
<title>AppModule</title>
<polygon fill="#8dd3c7" stroke="black" points="310.66,-187 307.66,-191 286.66,-191 283.66,-187 227.34,-187 227.34,-151 310.66,-151 310.66,-187"/>
<text text-anchor="middle" x="269" y="-164.8" font-family="Times,serif" font-size="14.00">AppModule</text>
</g>
<!-- ApartmentsModule&#45;&gt;AppModule -->
<g id="edge1" class="edge">
<title>ApartmentsModule&#45;&gt;AppModule</title>
<path fill="none" stroke="black" d="M475,-122.11C475,-141.34 475,-169 475,-169 475,-169 320.69,-169 320.69,-169"/>
<polygon fill="black" stroke="black" points="320.69,-165.5 310.69,-169 320.69,-172.5 320.69,-165.5"/>
</g>
<!-- DatabaseModule -->
<g id="node2" class="node">
<title>DatabaseModule</title>
<polygon fill="#8dd3c7" stroke="black" points="394.35,-122 391.35,-126 370.35,-126 367.35,-122 283.65,-122 283.65,-86 394.35,-86 394.35,-122"/>
<text text-anchor="middle" x="339" y="-99.8" font-family="Times,serif" font-size="14.00">DatabaseModule</text>
</g>
<!-- DatabaseModule&#45;&gt;AppModule -->
<g id="edge2" class="edge">
<title>DatabaseModule&#45;&gt;AppModule</title>
<path fill="none" stroke="black" d="M297.2,-122.11C297.2,-122.11 297.2,-140.99 297.2,-140.99"/>
<polygon fill="black" stroke="black" points="293.7,-140.99 297.2,-150.99 300.7,-140.99 293.7,-140.99"/>
</g>
<!-- ReservationsModule -->
<g id="node3" class="node">
<title>ReservationsModule</title>
<polygon fill="#8dd3c7" stroke="black" points="265.86,-122 262.86,-126 241.86,-126 238.86,-122 134.14,-122 134.14,-86 265.86,-86 265.86,-122"/>
<text text-anchor="middle" x="200" y="-99.8" font-family="Times,serif" font-size="14.00">ReservationsModule</text>
</g>
<!-- ReservationsModule&#45;&gt;AppModule -->
<g id="edge3" class="edge">
<title>ReservationsModule&#45;&gt;AppModule</title>
<path fill="none" stroke="black" d="M246.55,-122.11C246.55,-122.11 246.55,-140.99 246.55,-140.99"/>
<polygon fill="black" stroke="black" points="243.05,-140.99 246.55,-150.99 250.05,-140.99 243.05,-140.99"/>
</g>
<!-- UsersModule -->
<g id="node4" class="node">
<title>UsersModule</title>
<polygon fill="#8dd3c7" stroke="black" points="115.92,-122 112.92,-126 91.92,-126 88.92,-122 24.08,-122 24.08,-86 115.92,-86 115.92,-122"/>
<text text-anchor="middle" x="70" y="-99.8" font-family="Times,serif" font-size="14.00">UsersModule</text>
</g>
<!-- UsersModule&#45;&gt;AppModule -->
<g id="edge4" class="edge">
<title>UsersModule&#45;&gt;AppModule</title>
<path fill="none" stroke="black" d="M70,-122.11C70,-141.34 70,-169 70,-169 70,-169 217.28,-169 217.28,-169"/>
<polygon fill="black" stroke="black" points="217.28,-172.5 227.28,-169 217.28,-165.5 217.28,-172.5"/>
</g>
</g>
</svg>
